<svg width="50" height="50" viewBox="0 0 50 50" fill="none" xmlns="http://www.w3.org/2000/svg">
<path d="M36.65 8.04992C35.75 5.6874 34.1548 3.65337 32.0749 2.21619C29.995 0.778998 27.5282 0.00628783 25 0C22.4719 0.00628783 20.005 0.778998 17.9251 2.21619C15.8452 3.65337 14.25 5.6874 13.35 8.04992C11.6384 7.93326 9.92116 8.17029 8.30508 8.74603C6.68901 9.32176 5.20871 10.2239 3.95641 11.3965C2.7041 12.569 1.70661 13.9867 1.02596 15.5615C0.345301 17.1363 -0.00393781 18.8343 3.34923e-05 20.5499C3.34923e-05 23.8651 1.31702 27.0445 3.66122 29.3887C6.00543 31.7329 9.18482 33.0499 12.5 33.0499V50H37.5V32.9748C40.8152 32.9748 43.9946 31.6581 46.3388 29.3139C48.683 26.9697 50 23.79 50 20.4748C49.9937 18.7656 49.6369 17.0758 48.9517 15.5099C48.2665 13.944 47.2674 12.5353 46.0162 11.3708C44.765 10.2063 43.2883 9.31081 41.6773 8.73962C40.0663 8.16842 38.3553 7.93368 36.65 8.04992V8.04992ZM32.5 45H17.5V40H32.5V45ZM37.5 27.5C36.1624 27.5452 34.8943 28.1071 33.962 29.0674C33.0297 30.0276 32.5057 31.3117 32.5 32.6501V35H17.5V32.7249C17.5133 32.1026 17.4022 31.4839 17.1733 30.9051C16.9443 30.3263 16.6021 29.7993 16.1666 29.3545C15.7312 28.9098 15.2113 28.5563 14.6375 28.3151C14.0637 28.0739 13.4475 27.95 12.825 27.9501C11.2019 28.0422 9.59278 27.6041 8.24008 26.7023C6.88738 25.8005 5.86435 24.4838 5.32504 22.9501C4.7918 21.2928 4.85167 19.5015 5.49449 17.8836C6.13731 16.2657 7.32301 14.9218 8.84822 14.0823C10.3734 13.2429 12.1432 12.9602 13.854 13.2828C15.5648 13.6053 17.1102 14.5127 18.225 15.8499C13.925 6.84991 27.65 0.450146 31.775 9.52514C32.2493 10.5119 32.4956 11.5925 32.4956 12.6874C32.4956 13.7822 32.2493 14.8631 31.775 15.8499C32.4673 15.0038 33.3362 14.3193 34.3208 13.8443C35.3054 13.3693 36.3819 13.1152 37.475 13.1V13.1C38.5969 12.9322 39.7435 13.0767 40.7887 13.5178C41.8338 13.9588 42.7373 14.6792 43.4 15.6C44.2028 16.7074 44.6875 18.0134 44.8016 19.3765C44.9156 20.7396 44.6548 22.1079 44.0472 23.3334C43.4396 24.5589 42.5084 25.5949 41.3544 26.3293C40.2004 27.0637 38.8675 27.4686 37.5 27.5V27.5Z" fill="#FF9600"/>
</svg>
